<?xml version="1.0" standalone="no"?>
<!DOCTYPE svg PUBLIC "-//W3C//DTD SVG 20010904//EN"
 "http://www.w3.org/TR/2001/REC-SVG-20010904/DTD/svg10.dtd">
<svg version="1.0" xmlns="http://www.w3.org/2000/svg"
 width="1200.000000pt" height="1200.000000pt" viewBox="0 0 1200.000000 1200.000000"
 preserveAspectRatio="xMidYMid meet">

<g transform="translate(0.000000,1200.000000) scale(0.100000,-0.100000)"
fill="#000000" stroke="none">
<path d="M5762 8919 c-1027 -85 -1920 -684 -2391 -1603 -28 -55 -51 -103 -51
-108 0 -4 33 -8 73 -8 l72 0 60 112 c134 248 286 451 489 654 438 437 974 706
1587 796 201 29 568 31 754 4 362 -52 692 -160 980 -318 119 -66 319 -199 425
-284 116 -93 318 -297 420 -424 102 -128 212 -294 286 -435 l56 -105 74 0 c41
0 74 3 74 6 0 17 -132 260 -195 358 -267 418 -638 766 -1072 1005 -488 268
-1084 396 -1641 350z"/>
<path d="M5680 8584 c-313 -40 -647 -145 -910 -287 -436 -235 -822 -613 -1054
-1029 l-38 -68 56 0 c31 0 56 4 56 9 0 16 150 243 218 330 37 47 114 135 172
195 1049 1087 2800 1025 3772 -134 80 -94 251 -343 263 -380 5 -17 16 -20 62
-20 l55 0 -38 68 c-269 484 -733 901 -1247 1121 -231 99 -515 174 -759 200
-132 15 -479 12 -608 -5z"/>
<path d="M5943 8066 c-46 -91 -37 -86 -158 -101 -84 -11 -84 -10 -10 -85 l69
-70 -15 -92 c-9 -51 -15 -94 -14 -96 2 -2 41 18 88 43 l85 46 86 -46 c56 -30
86 -42 86 -33 0 7 -7 51 -15 98 l-16 85 72 67 c44 42 66 70 57 72 -7 3 -52 10
-100 16 l-86 12 -38 84 c-20 46 -40 84 -43 84 -4 0 -25 -38 -48 -84z"/>
<path d="M4985 7689 c-22 -45 -47 -84 -55 -89 -8 -4 -37 -10 -65 -14 -27 -4
-65 -10 -83 -13 l-34 -6 68 -68 68 -68 -15 -96 c-8 -52 -14 -95 -12 -95 1 0
41 19 89 43 l86 42 80 -43 c44 -24 83 -41 85 -38 3 3 -2 45 -10 93 l-17 88 71
71 71 71 -29 6 c-15 3 -56 9 -89 12 -34 4 -66 10 -72 14 -5 3 -28 43 -51 89
-23 45 -43 82 -44 82 -2 0 -21 -36 -42 -81z"/>
<path d="M6905 7689 c-22 -45 -47 -84 -55 -89 -8 -4 -37 -10 -65 -14 -27 -4
-65 -10 -83 -13 l-34 -6 68 -68 68 -68 -15 -96 c-8 -52 -14 -95 -12 -95 1 0
41 19 89 43 l86 42 80 -43 c44 -24 83 -41 85 -38 3 3 -2 45 -10 93 l-17 88 71
71 71 71 -29 6 c-15 3 -56 9 -89 12 -34 4 -66 10 -72 14 -5 3 -28 43 -51 89
-23 45 -43 82 -44 82 -2 0 -21 -36 -42 -81z"/>
<path d="M2400 6060 l0 -900 3600 0 3600 0 0 900 0 900 -3600 0 -3600 0 0
-900z m3010 393 c42 -54 11 -161 -81 -276 -31 -38 -49 -70 -49 -86 1 -25 2
-24 20 9 45 85 122 119 162 70 10 -12 18 -30 18 -40 0 -34 -22 -79 -46 -95
-34 -22 -30 -41 11 -55 34 -11 42 -24 27 -46 -22 -34 -109 -17 -131 24 -21 40
-13 69 24 91 25 15 35 27 35 46 0 65 -65 0 -102 -104 -27 -76 -51 -96 -76 -65
l-17 21 -38 -19 c-49 -26 -84 -18 -102 25 -8 18 -14 26 -15 19 0 -18 -46 -62
-65 -62 -8 0 -24 9 -34 19 -19 19 -20 19 -60 -1 -53 -26 -104 -18 -143 24
l-28 30 -30 -26 c-121 -101 -280 -14 -241 131 33 122 201 149 201 33 0 -48
-28 -83 -82 -105 -41 -16 -42 -17 -23 -32 26 -19 69 -10 120 25 37 26 40 32
43 79 3 47 1 52 -20 55 -17 2 -23 10 -23 28 0 20 6 26 26 28 23 3 29 10 39 50
19 76 51 141 82 167 93 79 145 -44 70 -165 l-30 -49 35 -3 c78 -7 40 -58 -42
-58 -60 0 -67 -9 -58 -82 10 -76 57 -100 107 -55 19 16 29 41 41 96 16 83 20
89 55 93 22 3 25 -1 24 -27 0 -16 -5 -56 -11 -87 -20 -116 27 -92 70 36 16 47
29 71 43 77 39 14 44 -1 28 -81 -24 -128 -15 -159 33 -107 16 17 23 41 28 102
24 277 126 448 205 348z m874 11 c53 -52 20 -175 -79 -294 -28 -34 -45 -65
-45 -80 1 -25 1 -25 17 5 35 68 100 113 135 94 21 -11 22 -34 6 -128 -7 -39
-9 -74 -5 -77 4 -4 18 -2 31 5 18 10 25 24 29 63 9 69 38 113 91 133 39 15 46
15 80 1 28 -11 42 -26 54 -56 13 -30 23 -40 40 -40 19 0 22 5 22 45 0 34 5 47
19 55 30 16 49 12 56 -11 6 -18 9 -19 23 -6 10 9 29 19 44 22 22 6 33 1 58
-23 35 -35 39 -74 15 -142 -18 -52 -19 -50 2 -50 9 0 30 12 45 27 26 24 28 33
28 100 0 61 3 74 19 83 30 16 48 12 54 -12 6 -20 7 -21 24 -6 33 30 67 32 97
6 38 -32 45 -90 18 -152 l-21 -46 23 0 c33 0 63 38 71 90 10 72 25 109 47 121
15 8 24 8 34 -3 12 -12 12 -25 -1 -92 -19 -97 -19 -105 1 -113 23 -9 64 35 65
71 1 62 23 120 49 133 37 18 46 2 33 -59 -11 -54 -9 -77 3 -42 22 61 93 118
135 107 25 -7 27 -27 11 -116 -10 -56 -11 -82 -4 -89 16 -16 62 17 62 45 1 38
36 103 71 130 45 33 97 44 105 22 4 -9 13 -13 24 -10 37 12 40 -15 14 -165
-46 -274 -88 -364 -169 -364 -47 0 -65 19 -65 68 0 52 22 87 101 165 52 50 58
58 32 45 -34 -16 -63 -12 -87 11 -12 12 -19 11 -52 -5 -47 -24 -63 -25 -93 -4
-22 16 -23 21 -17 95 4 44 3 79 -2 79 -12 0 -47 -66 -66 -127 -19 -58 -43 -74
-66 -45 -15 19 -16 19 -50 0 -37 -20 -74 -17 -99 7 -11 11 -20 10 -53 -7 -35
-19 -45 -20 -74 -9 -26 9 -43 10 -68 1 -31 -10 -34 -15 -40 -63 -10 -80 -36
-163 -57 -186 -46 -49 -102 -31 -115 35 -5 29 8 110 31 179 5 17 -1 22 -37 33
-32 9 -51 10 -74 2 -29 -10 -32 -16 -38 -68 -15 -124 -58 -212 -104 -212 -11
0 -30 9 -43 19 -45 36 -26 166 42 303 34 67 34 68 14 68 -8 0 -25 -17 -39 -37
-38 -61 -63 -78 -112 -78 -31 0 -49 6 -65 22 -22 22 -22 22 -50 2 -42 -29 -81
-34 -108 -12 -25 21 -28 43 -17 121 14 90 -22 59 -64 -56 -25 -68 -58 -98 -83
-73 -17 17 -11 233 9 331 36 175 118 274 178 214z m-1914 -44 c38 -38 20 -151
-33 -208 -12 -13 -39 -33 -59 -43 -38 -19 -38 -20 -38 -80 0 -51 4 -64 25 -85
30 -30 55 -26 102 18 34 33 53 30 53 -7 0 -31 -70 -91 -116 -100 -81 -15 -144
54 -144 156 l0 56 -57 -5 c-32 -2 -63 -9 -69 -16 -6 -6 -16 -38 -23 -71 -22
-108 -39 -133 -82 -120 -23 8 -24 30 -4 110 20 83 19 85 -16 85 -27 0 -30 3
-27 27 2 22 10 29 40 36 34 8 38 12 43 50 4 23 5 60 3 82 -3 35 -7 40 -29 43
-19 2 -35 -7 -64 -37 -63 -64 -94 -24 -34 44 41 46 78 65 129 65 77 0 98 -59
74 -207 -5 -32 -4 -33 29 -33 19 0 48 3 65 6 26 5 31 11 37 50 8 56 59 158 92
184 33 26 77 26 103 0z m1653 -38 c38 -38 47 -98 20 -131 -14 -17 -25 -22 -41
-17 -18 6 -22 15 -22 50 0 57 -18 71 -90 71 -67 0 -100 -22 -100 -65 0 -36 28
-59 130 -108 95 -45 115 -69 114 -134 -3 -84 -74 -133 -194 -133 -95 0 -146
23 -167 74 -11 26 -13 46 -7 71 8 30 13 35 39 35 28 0 30 -3 33 -42 4 -55 29
-73 100 -73 76 0 112 21 112 67 0 32 -30 56 -111 88 -44 18 -81 41 -100 62
-54 62 -33 164 43 204 66 36 197 25 241 -19z m1331 -74 c24 -34 1 -63 -50 -63
-33 0 -39 3 -42 23 -8 53 62 83 92 40z"/>
<path d="M5340 6405 c-15 -18 -50 -148 -50 -184 0 -23 3 -21 28 19 16 25 34
60 40 79 22 64 10 120 -18 86z"/>
<path d="M4830 6361 c-19 -36 -40 -143 -27 -138 21 7 57 81 57 120 0 40 -13
48 -30 18z"/>
<path d="M4547 6128 c-9 -7 -21 -28 -26 -45 -12 -40 3 -44 43 -12 42 33 25 88
-17 57z"/>
<path d="M6221 6406 c-14 -17 -54 -171 -49 -192 6 -30 71 94 76 145 4 50 -7
71 -27 47z"/>
<path d="M6761 6116 c-17 -18 -21 -35 -21 -84 0 -50 3 -60 15 -56 26 10 55 69
55 112 0 48 -19 60 -49 28z"/>
<path d="M7051 6121 c-20 -20 -38 -128 -24 -142 5 -5 21 3 37 20 56 58 42 177
-13 122z"/>
<path d="M7797 6129 c-22 -13 -56 -84 -57 -115 0 -12 7 -27 15 -34 24 -20 51
12 64 77 17 88 15 94 -22 72z"/>
<path d="M6466 6108 c-18 -26 -21 -80 -6 -109 15 -28 58 -25 72 6 9 19 8 29
-6 49 -9 14 -16 37 -16 51 0 31 -23 33 -44 3z"/>
<path d="M6631 5862 c-22 -70 -28 -162 -11 -162 5 0 14 17 19 38 12 42 27 192
19 192 -3 0 -15 -31 -27 -68z"/>
<path d="M6926 5883 c-32 -97 -39 -183 -15 -183 4 0 13 17 18 38 12 45 25 192
18 192 -3 0 -12 -21 -21 -47z"/>
<path d="M7757 5822 c-35 -36 -58 -94 -46 -113 8 -12 13 -10 29 9 18 22 54
121 47 129 -2 1 -15 -10 -30 -25z"/>
<path d="M4286 6338 c-14 -29 -28 -71 -32 -93 l-7 -39 24 15 c42 28 63 66 63
115 1 67 -19 68 -48 2z"/>
<path d="M796 5998 c10 -12 187 -195 392 -406 l372 -384 -262 -270 c-145 -149
-316 -326 -381 -394 l-119 -124 1246 0 1246 0 0 275 0 275 -540 0 -540 0 0
525 0 525 -717 0 -716 0 19 -22z"/>
<path d="M9790 5495 l0 -525 -540 0 -540 0 0 -275 0 -275 1246 0 1246 0 -119
124 c-65 68 -236 245 -381 394 l-262 270 372 384 c205 211 382 394 392 406
l19 22 -716 0 -717 0 0 -525z"/>
<path d="M4840 4530 l0 -191 23 3 c21 3 22 8 25 103 2 79 6 103 19 113 22 16
68 16 81 -1 6 -7 13 -58 14 -113 3 -91 5 -99 23 -99 18 0 20 8 23 80 4 99 -3
140 -29 166 -23 23 -76 25 -106 4 -22 -15 -22 -15 -25 52 -3 62 -5 68 -25 71
l-23 3 0 -191z"/>
<path d="M7450 4530 c0 -183 1 -190 20 -190 11 0 20 7 20 16 0 14 2 14 22 0
31 -22 80 -20 110 4 37 28 51 72 46 137 -4 48 -10 61 -37 85 -36 32 -84 37
-119 12 l-22 -15 0 70 c0 64 -2 71 -20 71 -19 0 -20 -7 -20 -190z m155 20 c23
-26 25 -109 2 -144 -13 -20 -26 -26 -52 -26 -45 0 -65 29 -65 95 0 65 20 95
64 95 20 0 40 -8 51 -20z"/>
<path d="M3440 4520 l0 -183 85 5 c65 3 92 9 112 24 49 37 54 103 13 144 -20
20 -20 20 1 49 17 23 20 37 15 65 -10 52 -42 69 -142 74 l-84 5 0 -183z m171
119 c14 -22 11 -56 -7 -73 -10 -11 -34 -16 -70 -16 l-54 0 0 48 c0 27 3 52 8
56 12 13 113 0 123 -15z m-3 -145 c28 -20 29 -67 1 -95 -16 -16 -30 -19 -72
-17 l-52 3 -3 49 c-2 27 -1 55 2 62 7 20 95 18 124 -2z"/>
<path d="M4604 4690 c-37 -15 -66 -61 -60 -94 9 -42 31 -63 95 -86 77 -29 101
-46 101 -74 0 -34 -30 -56 -78 -56 -44 0 -82 26 -82 55 0 9 -9 15 -25 15 -29
0 -31 -10 -10 -49 35 -69 163 -82 217 -22 15 17 28 42 28 55 0 39 -45 83 -103
102 -70 23 -97 42 -97 69 0 32 31 55 73 55 36 0 77 -27 77 -50 0 -5 11 -10 24
-10 24 0 24 2 14 31 -19 56 -108 86 -174 59z"/>
<path d="M5962 4678 c2 -15 10 -23 23 -23 30 0 27 39 -3 43 -20 3 -23 0 -20
-20z"/>
<path d="M6740 4686 c0 -14 49 -226 71 -308 7 -27 15 -38 29 -38 19 0 33 38
81 210 7 25 15 49 19 53 4 4 17 -30 29 -75 51 -190 51 -189 73 -186 18 3 26
25 63 175 23 95 40 175 37 178 -3 3 -13 5 -23 5 -17 0 -27 -32 -60 -191 -20
-100 -15 -107 -85 139 -11 39 -19 52 -33 52 -15 0 -25 -25 -58 -140 l-39 -140
-33 140 c-28 120 -35 140 -52 140 -10 0 -19 -6 -19 -14z"/>
<path d="M7987 4686 c-6 -15 11 -36 29 -36 14 0 27 28 18 41 -8 14 -41 11 -47
-5z"/>
<path d="M4280 4640 c0 -25 -4 -30 -25 -30 -18 0 -25 -5 -25 -20 0 -15 7 -20
25 -20 25 0 25 0 25 -99 0 -111 9 -131 61 -131 22 0 29 5 29 19 0 13 -8 21
-22 23 -22 3 -23 8 -26 96 l-3 92 26 0 c18 0 25 5 25 20 0 15 -7 20 -25 20
-21 0 -25 5 -25 30 0 23 -4 30 -20 30 -16 0 -20 -7 -20 -30z"/>
<path d="M8120 4641 c0 -23 -5 -30 -22 -33 -34 -5 -37 -38 -4 -38 l26 0 0 -93
c0 -111 14 -140 63 -135 41 4 52 38 13 38 l-26 0 0 95 c0 88 1 95 20 95 13 0
20 7 20 20 0 13 -7 20 -20 20 -16 0 -20 7 -20 30 0 25 -4 30 -25 30 -21 0 -25
-5 -25 -29z"/>
<path d="M3789 4595 c-53 -29 -76 -133 -44 -195 29 -55 105 -76 165 -45 28 15
38 34 24 48 -4 3 -16 0 -28 -8 -24 -17 -69 -19 -96 -5 -10 5 -23 23 -28 40
l-11 30 90 0 89 0 0 31 c0 93 -83 146 -161 104z m108 -62 l13 -33 -65 0 c-70
0 -78 7 -49 48 12 18 24 22 52 20 30 -2 38 -8 49 -35z"/>
<path d="M4029 4581 c-16 -16 -29 -38 -29 -48 0 -28 39 -60 90 -73 54 -14 74
-34 59 -61 -14 -27 -84 -26 -101 1 -7 11 -23 20 -34 20 -32 0 -20 -37 20 -61
52 -32 143 -17 160 26 20 54 -4 85 -86 109 -46 14 -65 34 -55 60 10 24 73 22
89 -4 13 -21 58 -28 58 -9 0 6 -13 24 -29 40 -23 23 -38 29 -71 29 -33 0 -48
-6 -71 -29z"/>
<path d="M5145 4577 c-80 -80 -43 -220 62 -234 76 -10 133 47 133 132 0 81
-50 135 -126 135 -28 0 -44 -8 -69 -33z m132 -34 c10 -15 18 -46 18 -68 0 -58
-27 -95 -68 -95 -38 0 -50 7 -66 37 -22 43 -9 124 23 145 6 4 26 8 43 8 24 0
37 -7 50 -27z"/>
<path d="M5400 4425 c0 -178 1 -185 20 -185 18 0 20 7 20 61 0 54 2 60 18 54
88 -39 162 16 162 120 0 103 -87 169 -158 119 -20 -14 -22 -14 -22 0 0 9 -9
16 -20 16 -19 0 -20 -7 -20 -185z m154 123 c10 -13 16 -43 16 -73 0 -64 -20
-95 -62 -95 -51 0 -68 24 -68 93 0 72 17 97 66 97 23 0 38 -7 48 -22z"/>
<path d="M5680 4425 c0 -178 1 -185 20 -185 18 0 20 7 20 61 0 54 2 60 18 53
9 -4 33 -9 52 -11 71 -9 120 68 105 165 -12 84 -92 129 -152 87 -19 -13 -22
-13 -27 0 -3 8 -12 15 -21 15 -13 0 -15 -26 -15 -185z m150 125 c25 -25 28
-114 4 -148 -18 -26 -74 -30 -98 -6 -23 22 -22 131 1 156 21 24 68 23 93 -2z"/>
<path d="M5960 4475 c0 -128 1 -135 20 -135 19 0 20 7 20 135 0 128 -1 135
-20 135 -19 0 -20 -7 -20 -135z"/>
<path d="M6080 4475 c0 -128 1 -135 20 -135 19 0 20 7 20 98 0 111 11 132 68
132 44 0 52 -22 52 -134 0 -89 1 -96 20 -96 19 0 20 7 20 110 0 104 -1 112
-25 135 -27 28 -66 32 -107 11 -24 -13 -28 -13 -28 0 0 8 -9 14 -20 14 -19 0
-20 -7 -20 -135z"/>
<path d="M6391 4594 c-29 -21 -51 -72 -51 -119 0 -99 78 -163 152 -124 11 6
22 9 24 6 7 -7 -16 -61 -29 -69 -19 -12 -71 -8 -91 7 -21 16 -36 11 -36 -11 0
-17 58 -44 95 -44 38 0 79 25 93 55 8 16 12 80 12 170 0 138 -1 145 -20 145
-11 0 -20 -7 -20 -16 0 -14 -2 -14 -22 0 -29 21 -77 20 -107 0z m111 -41 c14
-12 18 -31 18 -76 0 -72 -17 -97 -66 -97 -43 0 -67 35 -67 95 0 59 24 95 65
95 17 0 40 -7 50 -17z"/>
<path d="M7245 4601 c-78 -32 -95 -170 -29 -232 36 -34 123 -35 156 -1 19 19
21 24 8 32 -10 6 -20 4 -31 -6 -27 -24 -84 -18 -108 12 -37 48 -30 54 64 54
97 0 103 4 85 68 -18 68 -81 99 -145 73z m89 -53 c29 -41 21 -48 -49 -48 -36
0 -65 3 -65 6 0 11 23 49 34 56 23 16 65 8 80 -14z"/>
<path d="M7756 4589 c-19 -15 -26 -30 -26 -54 0 -39 12 -51 80 -73 29 -9 58
-24 63 -34 27 -42 -66 -69 -100 -28 -20 23 -53 27 -53 6 0 -8 14 -26 31 -40
61 -52 172 -21 172 47 0 39 -27 64 -90 82 -30 9 -56 22 -60 31 -15 41 76 64
97 24 11 -20 50 -28 50 -11 0 61 -108 94 -164 50z"/>
<path d="M7990 4475 c0 -128 1 -135 20 -135 19 0 20 7 20 135 0 128 -1 135
-20 135 -19 0 -20 -7 -20 -135z"/>
<path d="M8318 4594 c-39 -20 -58 -64 -58 -128 0 -47 4 -61 28 -87 23 -25 38
-33 78 -36 43 -5 54 -2 80 20 23 20 26 28 17 38 -10 10 -16 9 -31 -4 -30 -27
-87 -22 -111 9 -38 48 -30 54 69 54 90 0 90 0 90 25 0 38 -25 90 -51 109 -29
20 -75 20 -111 0z m94 -41 c10 -9 18 -24 18 -35 0 -16 -8 -18 -65 -18 -57 0
-64 2 -58 18 18 50 69 68 105 35z"/>
<path d="M7470 3859 c-354 -291 -814 -486 -1285 -544 -171 -22 -453 -22 -620
-1 -366 46 -715 170 -1025 363 -52 32 -100 62 -107 66 -7 5 -22 -7 -37 -30
l-26 -37 98 -64 c115 -75 358 -196 496 -247 581 -215 1239 -215 1822 0 132 49
357 158 474 230 103 65 311 218 348 257 l23 25 -35 27 c-19 14 -36 26 -38 25
-2 0 -41 -32 -88 -70z"/>
<path d="M7705 3663 c-433 -379 -1055 -629 -1649 -661 -616 -33 -1199 122
-1702 453 l-113 74 -35 -52 c-20 -29 -36 -56 -36 -60 0 -15 240 -165 377 -235
298 -152 599 -248 938 -299 150 -22 628 -25 770 -5 566 81 1062 293 1486 634
132 107 129 99 72 140 -26 19 -52 37 -58 40 -5 3 -28 -10 -50 -29z"/>
</g>
</svg>
